<svg width="256" height="256" viewBox="0 0 256 256" fill="none" xmlns="http://www.w3.org/2000/svg">
<mask id="mask0" mask-type="alpha" maskUnits="userSpaceOnUse" x="0" y="0" width="256" height="256">
<rect width="256" height="256" rx="43" fill="#C4C4C4"/>
</mask>
<g mask="url(#mask0)">
<rect x="32.3877" y="128.471" width="31.3081" height="31.3081" fill="#BFBFB5"/>
<rect x="192.167" y="128.471" width="31.3081" height="31.3081" fill="#BFBFB5"/>
<rect x="159.779" y="128.471" width="32.3877" height="31.3081" fill="#40316A"/>
<rect x="63.6958" y="128.471" width="32.3877" height="31.3081" fill="#40316A"/>
<rect y="128.471" width="32.3877" height="31.3081" fill="#C6B098"/>
<rect y="96.0834" width="32.3877" height="32.3877" fill="#C3A686"/>
<rect x="32.3877" y="96.0834" width="31.3081" height="32.3877" fill="#C4B399"/>
<rect x="96.0835" y="96.0834" width="32.3877" height="32.3877" fill="#C5B095"/>
<rect x="96.0835" y="63.6958" width="32.3877" height="32.3877" fill="#C5B69F"/>
<rect y="63.6958" width="32.3877" height="32.3877" fill="#30333A"/>
<rect x="31.812" y="32.3976" width="32.3877" height="32.3877" fill="#C5B095"/>
<rect x="63.6958" y="63.6958" width="32.3877" height="32.3877" fill="#C5B095"/>
<rect x="159.779" y="96.0834" width="32.3877" height="32.3877" fill="#C4B399"/>
<rect x="159.779" y="159.779" width="32.3877" height="32.3877" fill="#C4B399"/>
<rect x="63.6958" y="159.779" width="32.3877" height="32.3877" fill="#C4B399"/>
<rect x="63.6958" y="192.167" width="32.3877" height="31.3081" fill="#9D856D"/>
<rect x="32.3877" y="223.475" width="31.3081" height="32.3877" fill="#A08067"/>
<rect y="223.475" width="32.3877" height="32.3877" fill="#A08067"/>
<rect y="192.167" width="32.3877" height="31.3081" fill="#A88768"/>
<rect y="159.779" width="32.3877" height="32.3877" fill="#B1906F"/>
<rect x="32.3877" y="159.779" width="31.3081" height="32.3877" fill="#BE9D7D"/>
<rect x="192.167" y="159.779" width="31.3081" height="32.3877" fill="#BE9D7D"/>
<rect x="223.475" y="128.471" width="32.3877" height="31.3081" fill="#BE9D7D"/>
<rect x="32.3877" y="192.167" width="31.3081" height="31.3081" fill="#AF8E6F"/>
<rect x="96.0835" y="223.475" width="32.3877" height="32.3877" fill="#AF8E6F"/>
<rect x="159.779" y="223.475" width="32.3877" height="32.3877" fill="#AA896A"/>
<rect x="192.167" y="223.475" width="31.3081" height="32.3877" fill="#AA896A"/>
<rect x="192.167" y="192.167" width="31.3081" height="31.3081" fill="#AA896A"/>
<rect x="128.471" y="223.475" width="31.3081" height="32.3877" fill="#9E826A"/>
<rect x="96.0835" y="192.167" width="32.3877" height="31.3081" fill="#9D856D"/>
<rect x="128.471" y="192.167" width="31.3081" height="31.3081" fill="#9D856D"/>
<rect x="159.779" y="192.167" width="32.3877" height="31.3081" fill="#9D856D"/>
<rect x="223.475" y="223.475" width="32.3877" height="32.3877" fill="#998169"/>
<rect x="223.475" y="192.167" width="32.3877" height="31.3081" fill="#998169"/>
<rect x="223.475" y="159.779" width="32.3877" height="32.3877" fill="#998169"/>
<rect x="128.471" y="159.779" width="31.3081" height="32.3877" fill="#998169"/>
<rect x="96.0835" y="159.779" width="32.3877" height="32.3877" fill="#998169"/>
<rect x="63.6958" y="223.475" width="32.3877" height="32.3877" fill="#5D352B"/>
<rect x="128.471" y="128.471" width="31.3081" height="31.3081" fill="#C4B399"/>
<rect x="32.3877" y="63.6958" width="31.3081" height="32.3877" fill="#C3A686"/>
<rect x="96.0835" y="128.471" width="32.3877" height="31.3081" fill="#C3A686"/>
<rect x="128.471" y="96.0834" width="31.3081" height="32.3877" fill="#C3A686"/>
<rect x="192.167" y="96.0834" width="31.3081" height="32.3877" fill="#C3A686"/>
<rect x="223.475" y="96.0834" width="32.3877" height="32.3877" fill="#24272C"/>
<rect x="223.475" y="63.6958" width="32.3877" height="32.3877" fill="#24272C"/>
<rect x="223.475" y="32.3877" width="32.3877" height="31.3081" fill="#24272C"/>
<rect x="192.167" y="32.3877" width="31.3081" height="31.3081" fill="#24272C"/>
<rect x="192.167" y="63.6958" width="31.3081" height="32.3877" fill="#24272C"/>
<rect x="128.471" y="63.6958" width="31.3081" height="32.3877" fill="#24272C"/>
<rect x="96.0835" y="32.3877" width="32.3877" height="31.3081" fill="#24272C"/>
<rect x="63.6958" y="32.3877" width="32.3877" height="31.3081" fill="#24272C"/>
<rect x="63.6958" width="32.3877" height="32.3877" fill="#24272C"/>
<rect y="32.3877" width="32.3877" height="31.3081" fill="#24272C"/>
<rect x="159.779" y="63.6958" width="32.3877" height="32.3877" fill="#30333A"/>
<rect x="159.779" y="32.3877" width="32.3877" height="31.3081" fill="#30333A"/>
<rect x="128.471" y="32.3877" width="31.3081" height="31.3081" fill="#30333A"/>
<rect x="128.471" width="31.3081" height="32.3877" fill="#30333A"/>
<rect x="159.779" width="32.3877" height="32.3877" fill="#30333A"/>
<rect x="192.167" width="31.3081" height="32.3877" fill="#30333A"/>
<rect x="223.475" width="32.3877" height="32.3877" fill="#30333A"/>
<rect x="96.0835" width="32.3877" height="32.3877" fill="#30333A"/>
<rect x="0.000244141" y="6.10352e-05" width="32.3877" height="32.3877" fill="#30333A"/>
<rect x="32.3877" width="31.3081" height="32.3877" fill="#30333A"/>
<rect x="63.6958" y="96.0834" width="32.3877" height="32.3877" fill="#C3A686"/>
</g>
</svg>
